<mxfile host="app.diagrams.net" agent="Mozilla/5.0 (Windows NT 10.0; Win64; x64; rv:138.0) Gecko/20100101 Firefox/138.0" version="27.0.5">
  <diagram name="Page-1" id="DyFBhKMBacrh7bEkEiDU">
    <mxGraphModel dx="1429" dy="856" grid="1" gridSize="10" guides="1" tooltips="1" connect="1" arrows="1" fold="1" page="1" pageScale="1" pageWidth="3300" pageHeight="4681" math="0" shadow="0">
      <root>
        <mxCell id="0" />
        <mxCell id="1" parent="0" />
        <mxCell id="RxmlgKbhr9ZlsDnlwpTz-3" style="edgeStyle=orthogonalEdgeStyle;rounded=0;orthogonalLoop=1;jettySize=auto;html=1;exitX=1;exitY=0.5;exitDx=0;exitDy=0;entryX=0;entryY=0.5;entryDx=0;entryDy=0;" edge="1" parent="1" source="RxmlgKbhr9ZlsDnlwpTz-1" target="RxmlgKbhr9ZlsDnlwpTz-2">
          <mxGeometry relative="1" as="geometry" />
        </mxCell>
        <mxCell id="RxmlgKbhr9ZlsDnlwpTz-1" value="data&#xa;mDixon MR&#xa;Images" style="rectangle;fillColor=#fff2cc;strokeColor=#d6b656;" name="data" vertex="1" parent="1">
          <mxGeometry x="340" y="230" width="100" height="50" as="geometry" />
        </mxCell>
        <mxCell id="RxmlgKbhr9ZlsDnlwpTz-5" style="edgeStyle=orthogonalEdgeStyle;rounded=0;orthogonalLoop=1;jettySize=auto;html=1;exitX=1;exitY=0.5;exitDx=0;exitDy=0;entryX=0.5;entryY=0;entryDx=0;entryDy=0;" edge="1" parent="1" source="RxmlgKbhr9ZlsDnlwpTz-2" target="RxmlgKbhr9ZlsDnlwpTz-4">
          <mxGeometry relative="1" as="geometry" />
        </mxCell>
        <mxCell id="RxmlgKbhr9ZlsDnlwpTz-2" value="transform" style="rounded=1;whiteSpace=wrap;html=1;arcSize=50;fillColor=#f8cecc;strokeColor=#b85450;" name="transform" vertex="1" parent="1">
          <mxGeometry x="520" y="230" width="100" height="50" as="geometry" />
        </mxCell>
        <mxCell id="RxmlgKbhr9ZlsDnlwpTz-7" style="edgeStyle=orthogonalEdgeStyle;rounded=0;orthogonalLoop=1;jettySize=auto;html=1;exitX=0.5;exitY=1;exitDx=0;exitDy=0;entryX=1;entryY=0.5;entryDx=0;entryDy=0;" edge="1" parent="1" source="RxmlgKbhr9ZlsDnlwpTz-4" target="RxmlgKbhr9ZlsDnlwpTz-6">
          <mxGeometry relative="1" as="geometry" />
        </mxCell>
        <mxCell id="RxmlgKbhr9ZlsDnlwpTz-17" style="edgeStyle=orthogonalEdgeStyle;rounded=0;orthogonalLoop=1;jettySize=auto;html=1;exitX=1;exitY=0.5;exitDx=0;exitDy=0;entryX=0.5;entryY=0;entryDx=0;entryDy=0;" edge="1" parent="1" source="RxmlgKbhr9ZlsDnlwpTz-4" target="RxmlgKbhr9ZlsDnlwpTz-16">
          <mxGeometry relative="1" as="geometry" />
        </mxCell>
        <mxCell id="RxmlgKbhr9ZlsDnlwpTz-4" value="data&#xa;Extracted Features" style="rectangle;fillColor=#fff2cc;strokeColor=#d6b656;" name="data" vertex="1" parent="1">
          <mxGeometry x="650" y="330" width="100" height="50" as="geometry" />
        </mxCell>
        <mxCell id="RxmlgKbhr9ZlsDnlwpTz-9" style="edgeStyle=orthogonalEdgeStyle;rounded=0;orthogonalLoop=1;jettySize=auto;html=1;exitX=0;exitY=0.5;exitDx=0;exitDy=0;entryX=0.5;entryY=0;entryDx=0;entryDy=0;" edge="1" parent="1" source="RxmlgKbhr9ZlsDnlwpTz-6" target="RxmlgKbhr9ZlsDnlwpTz-8">
          <mxGeometry relative="1" as="geometry" />
        </mxCell>
        <mxCell id="RxmlgKbhr9ZlsDnlwpTz-6" value="transform" style="rounded=1;whiteSpace=wrap;html=1;arcSize=50;fillColor=#f8cecc;strokeColor=#b85450;" name="transform" vertex="1" parent="1">
          <mxGeometry x="520" y="430" width="100" height="50" as="geometry" />
        </mxCell>
        <mxCell id="RxmlgKbhr9ZlsDnlwpTz-12" style="edgeStyle=orthogonalEdgeStyle;rounded=0;orthogonalLoop=1;jettySize=auto;html=1;exitX=0.5;exitY=1;exitDx=0;exitDy=0;entryX=0;entryY=0.5;entryDx=0;entryDy=0;" edge="1" parent="1" source="RxmlgKbhr9ZlsDnlwpTz-8" target="RxmlgKbhr9ZlsDnlwpTz-11">
          <mxGeometry relative="1" as="geometry" />
        </mxCell>
        <mxCell id="RxmlgKbhr9ZlsDnlwpTz-8" value="data&#xa;Seven-dimensional&#xa;MR Feature" style="rectangle;fillColor=#fff2cc;strokeColor=#d6b656;" name="data" vertex="1" parent="1">
          <mxGeometry x="390" y="530" width="100" height="50" as="geometry" />
        </mxCell>
        <mxCell id="RxmlgKbhr9ZlsDnlwpTz-11" value="infer:deduce" style="rounded=1;whiteSpace=wrap;html=1;arcSize=50;fillColor=#bac8d3;strokeColor=#23445d;" name="infer:deduce" vertex="1" parent="1">
          <mxGeometry x="520" y="630" width="100" height="50" as="geometry" />
        </mxCell>
        <mxCell id="RxmlgKbhr9ZlsDnlwpTz-13" value="data&#xa;Referenced Class&#xa;Prototypes" style="rectangle;fillColor=#fff2cc;strokeColor=#d6b656;" name="data" vertex="1" parent="1">
          <mxGeometry x="700" y="630" width="100" height="50" as="geometry" />
        </mxCell>
        <mxCell id="RxmlgKbhr9ZlsDnlwpTz-15" value="&lt;div&gt;error&lt;/div&gt;&lt;div&gt;--&amp;gt;&lt;/div&gt;" style="text;html=1;align=center;verticalAlign=middle;whiteSpace=wrap;rounded=0;dashed=1;fillColor=#f5f5f5;fontColor=#333333;strokeColor=#666666;strokeWidth=2;" name="text" vertex="1" parent="1">
          <mxGeometry x="620" y="640" width="80" height="30" as="geometry" />
        </mxCell>
        <mxCell id="RxmlgKbhr9ZlsDnlwpTz-21" style="edgeStyle=orthogonalEdgeStyle;rounded=0;orthogonalLoop=1;jettySize=auto;html=1;exitX=1;exitY=0.5;exitDx=0;exitDy=0;entryX=0;entryY=0.5;entryDx=0;entryDy=0;" edge="1" parent="1" source="RxmlgKbhr9ZlsDnlwpTz-16" target="RxmlgKbhr9ZlsDnlwpTz-20">
          <mxGeometry relative="1" as="geometry" />
        </mxCell>
        <mxCell id="RxmlgKbhr9ZlsDnlwpTz-16" value="generate:train" style="rounded=1;whiteSpace=wrap;html=1;arcSize=50;fillColor=#e1d5e7;strokeColor=#9673a6;" name="generate:train" vertex="1" parent="1">
          <mxGeometry x="820" y="480" width="100" height="50" as="geometry" />
        </mxCell>
        <mxCell id="RxmlgKbhr9ZlsDnlwpTz-19" value="&lt;div&gt;error&lt;/div&gt;&lt;div&gt;&amp;nbsp; ^&lt;/div&gt;&lt;div&gt;&amp;nbsp; |&lt;/div&gt;&lt;div&gt;--&lt;/div&gt;" style="text;html=1;align=center;verticalAlign=middle;whiteSpace=wrap;rounded=0;dashed=1;fillColor=#f5f5f5;fontColor=#333333;strokeColor=#666666;strokeWidth=2;" name="text" vertex="1" parent="1">
          <mxGeometry x="800" y="530" width="70" height="130" as="geometry" />
        </mxCell>
        <mxCell id="RxmlgKbhr9ZlsDnlwpTz-23" style="edgeStyle=orthogonalEdgeStyle;rounded=0;orthogonalLoop=1;jettySize=auto;html=1;exitX=1;exitY=0.5;exitDx=0;exitDy=0;entryX=0;entryY=0.5;entryDx=0;entryDy=0;" edge="1" parent="1" source="RxmlgKbhr9ZlsDnlwpTz-20" target="RxmlgKbhr9ZlsDnlwpTz-22">
          <mxGeometry relative="1" as="geometry" />
        </mxCell>
        <mxCell id="RxmlgKbhr9ZlsDnlwpTz-20" value="model:hybrid&#xa;TDOs" style="shape=hexagon;perimeter=hexagonPerimeter2;fillColor=#b0e3e6;strokeColor=#0e8088;" name="model" vertex="1" parent="1">
          <mxGeometry x="1000" y="480" width="120" height="50" as="geometry" />
        </mxCell>
        <mxCell id="RxmlgKbhr9ZlsDnlwpTz-27" style="edgeStyle=orthogonalEdgeStyle;rounded=0;orthogonalLoop=1;jettySize=auto;html=1;exitX=1;exitY=0.5;exitDx=0;exitDy=0;entryX=0;entryY=0.5;entryDx=0;entryDy=0;" edge="1" parent="1" source="RxmlgKbhr9ZlsDnlwpTz-22" target="RxmlgKbhr9ZlsDnlwpTz-26">
          <mxGeometry relative="1" as="geometry" />
        </mxCell>
        <mxCell id="RxmlgKbhr9ZlsDnlwpTz-22" value="infer:deduce" style="rounded=1;whiteSpace=wrap;html=1;arcSize=50;fillColor=#bac8d3;strokeColor=#23445d;" name="infer:deduce" vertex="1" parent="1">
          <mxGeometry x="1200" y="480" width="100" height="50" as="geometry" />
        </mxCell>
        <mxCell id="RxmlgKbhr9ZlsDnlwpTz-25" style="edgeStyle=orthogonalEdgeStyle;rounded=0;orthogonalLoop=1;jettySize=auto;html=1;entryX=0.5;entryY=1;entryDx=0;entryDy=0;" edge="1" parent="1" source="RxmlgKbhr9ZlsDnlwpTz-24" target="RxmlgKbhr9ZlsDnlwpTz-22">
          <mxGeometry relative="1" as="geometry" />
        </mxCell>
        <mxCell id="RxmlgKbhr9ZlsDnlwpTz-24" value="data&#xa;Patient MR&#xa;Feature Data" style="rectangle;fillColor=#fff2cc;strokeColor=#d6b656;" name="data" vertex="1" parent="1">
          <mxGeometry x="1200" y="610" width="100" height="50" as="geometry" />
        </mxCell>
        <mxCell id="RxmlgKbhr9ZlsDnlwpTz-26" value="symbol&#xa;Segmented MR&#xa;Images" style="rectangle;fillColor=#dae8fc;strokeColor=#6c8ebf;" name="symbol" vertex="1" parent="1">
          <mxGeometry x="1380" y="480" width="100" height="50" as="geometry" />
        </mxCell>
      </root>
    </mxGraphModel>
  </diagram>
</mxfile>
